<?xml version="1.0" encoding="UTF-8"?>
<!DOCTYPE svg PUBLIC "-//W3C//DTD SVG 1.1//EN" "http://www.w3.org/Graphics/SVG/1.1/DTD/svg11.dtd">
<!-- Creator: CorelDRAW X7 -->
<svg xmlns="http://www.w3.org/2000/svg" xml:space="preserve" width="10.3183in" height="2.4427in" version="1.1" style="shape-rendering:geometricPrecision; text-rendering:geometricPrecision; image-rendering:optimizeQuality; fill-rule:evenodd; clip-rule:evenodd"
viewBox="0 0 14718 3484"
 xmlns:xlink="http://www.w3.org/1999/xlink">
 <defs>
  <style type="text/css">
   <![CDATA[
    .fil0 {fill:black}
    .fil1 {fill:#373435;fill-rule:nonzero}
   ]]>
  </style>
 </defs>
 <g id="Layer_x0020_1">
  <metadata id="CorelCorpID_0Corel-Layer"/>
  <g id="_292651904">
   <path class="fil0" d="M1594 7c-911,82 -1674,871 -1587,1884 76,901 872,1678 1884,1586 909,-82 1674,-871 1585,-1889 -79,-902 -877,-1671 -1882,-1581zm-1487 2253c64,29 22,-35 84,120 485,1209 2224,1454 2982,236 483,-777 237,-1824 -566,-2311 -1153,-699 -2647,197 -2536,1583 5,62 13,121 26,181 17,81 8,107 10,191z"/>
   <path class="fil0" d="M145 2219c30,20 211,10 248,10l198 1c4,0 26,-1 29,-1l10 -21c-174,-64 -96,-117 31,-443l557 0c33,89 66,169 100,254 17,45 36,87 14,133 -27,59 -75,38 -111,67l374 10c67,0 345,14 380,-10 -39,-34 -122,0 -201,-117 -90,-131 -687,-1557 -739,-1578 -12,18 -71,190 -88,229l-596 1341c-65,106 -140,99 -184,114l-22 11zm563 -555l464 0 -225 -576c-41,92 -81,187 -120,280 -35,83 -96,209 -119,296z"/>
   <path class="fil0" d="M1961 592c48,43 126,-3 176,101 34,71 5,177 20,259l90 0c69,12 -49,-16 19,5 3,1 6,3 9,4 2,1 6,3 8,4l-1 42c-14,10 -2,5 -26,11 -44,11 -35,-5 -98,24 -21,235 17,1001 -20,1077 -33,68 -36,9 -36,113l1152 0 106 -454c1,-23 3,-11 -4,-27 -54,35 -64,219 -274,329 -155,80 -366,45 -550,52 -17,-144 -6,-1119 -6,-1343 0,-180 113,-168 158,-182 34,-11 20,8 33,-25 -103,0 -719,-15 -756,10z"/>
   <path class="fil0" d="M1544 986l73 19c27,8 52,22 67,37 37,39 42,91 42,161 0,139 0,277 0,415 0,161 -20,229 43,364 57,123 79,170 246,169l5 115 -295 1c3,247 32,591 -193,759 -15,11 -25,15 -45,28 -45,28 -24,3 -37,40 219,36 420,-94 509,-200 147,-177 120,-356 120,-613l0 -1088c0,-132 49,-194 181,-195 -12,-32 7,-11 -24,-22l-670 1c-26,6 -6,-3 -22,9z"/>
   <path class="fil1" d="M12093 1802l12 0 0 12 -413 0 0 -12 11 0c19,0 33,-6 43,-18 9,-12 13,-23 13,-33 0,-10 -2,-21 -6,-31l-64 -159 -303 0 -67 159c-4,11 -6,22 -6,32 0,10 4,20 13,32 9,12 24,18 44,18l10 0 0 12 -277 0 0 -12 12 0c20,0 39,-7 59,-19 20,-12 36,-30 49,-54l299 -677c41,-85 62,-142 65,-169l12 0 384 843c13,25 29,44 49,57 20,12 40,19 61,19zm-685 -296l259 0 -125 -318 -134 318z"/>
   <path class="fil1" d="M7403 909c152,0 273,40 362,121 89,81 133,192 133,332 0,139 -44,250 -133,331 -89,81 -210,121 -362,121l-470 0 0 -12 17 0c22,0 41,-8 57,-24 16,-16 25,-36 26,-58l0 -725c-3,-20 -12,-38 -28,-52 -15,-14 -34,-21 -55,-21l-17 0 0 -13 470 0zm-17 851c62,0 116,-16 161,-48 45,-33 80,-79 104,-139 24,-60 36,-130 36,-211 0,-123 -27,-220 -81,-292 -54,-71 -127,-107 -220,-107l-159 0 0 797 159 0z"/>
   <path class="fil1" d="M6336 891c160,0 287,42 381,126 94,85 141,200 141,345 0,144 -47,259 -141,344 -94,84 -221,127 -381,127 -159,0 -286,-43 -380,-127 -94,-85 -141,-200 -141,-344 0,-96 21,-180 64,-251 43,-71 103,-126 182,-163 78,-38 170,-57 275,-57zm-225 775c55,75 131,112 225,112 95,0 171,-37 226,-112 56,-74 84,-176 84,-304 0,-85 -13,-159 -38,-222 -25,-63 -61,-111 -107,-145 -47,-33 -102,-50 -165,-50 -94,0 -170,37 -225,112 -56,74 -84,176 -84,305 0,128 28,230 84,304z"/>
   <path class="fil1" d="M5074 1802l11 0 0 12 -413 0 0 -12 12 0c19,0 33,-6 42,-18 9,-12 14,-23 14,-33 0,-10 -2,-21 -7,-31l-63 -159 -303 0 -67 159c-4,11 -7,22 -7,32 0,10 5,20 14,32 9,12 23,18 43,18l11 0 0 12 -277 0 0 -12 11 0c20,0 40,-7 60,-19 20,-12 36,-30 49,-54l299 -677c41,-85 62,-142 65,-169l11 0 385 843c13,25 29,44 49,57 20,12 40,19 61,19zm-685 -296l259 0 -126 -318 -133 318z"/>
   <path class="fil1" d="M6258 2128c102,0 182,27 242,80 60,54 90,127 90,219 0,92 -30,165 -90,219 -60,54 -140,81 -242,81 -101,0 -182,-27 -242,-81 -60,-54 -90,-127 -90,-219 0,-61 14,-114 41,-159 27,-45 66,-80 116,-104 50,-24 108,-36 175,-36zm-144 493c36,48 84,71 144,71 60,0 108,-23 144,-71 35,-47 53,-112 53,-194 0,-53 -8,-100 -24,-140 -16,-40 -39,-71 -68,-93 -30,-21 -65,-32 -105,-32 -60,0 -108,24 -144,72 -35,47 -53,112 -53,193 0,82 18,147 53,194z"/>
   <path class="fil1" d="M5253 2707l7 0 0 8 -263 0 0 -8 8 0c12,0 21,-4 27,-11 5,-7 8,-14 8,-21 0,-7 -1,-13 -4,-20l-40 -101 -193 0 -42 101c-3,7 -5,14 -5,20 0,7 3,14 9,21 6,7 15,11 28,11l6 0 0 8 -176 0 0 -8 8 0c12,0 25,-4 37,-11 13,-8 23,-20 32,-35l190 -430c25,-55 39,-91 41,-108l7 0 245 536c8,16 18,28 31,36 13,8 25,12 39,12zm-436 -188l165 0 -80 -202 -85 202z"/>
   <path class="fil1" d="M6660 2639c0,-40 9,-73 26,-101l7 0c0,4 -1,8 -1,13 0,38 14,71 41,99 27,28 65,42 112,42 36,0 65,-8 86,-26 20,-18 31,-40 31,-67 0,-32 -22,-60 -66,-84l-143 -95c-29,-17 -49,-36 -62,-60 -12,-23 -18,-47 -18,-71 0,-51 16,-91 49,-119 32,-28 74,-42 125,-42 30,0 68,3 112,8l52 0 -11 121 -8 0c0,-28 -11,-51 -32,-69 -21,-17 -49,-26 -84,-26 -43,0 -74,14 -93,40 -10,13 -15,27 -15,43 0,26 19,50 58,73l157 102c49,28 74,70 74,126 0,59 -20,103 -60,134 -39,31 -92,47 -158,47 -37,0 -72,-5 -103,-14 -32,-9 -55,-21 -70,-36 -4,-11 -6,-23 -6,-38z"/>
   <path class="fil1" d="M5882 2448l-12 0c-13,0 -24,3 -31,9 -7,7 -10,16 -10,28l0 136c-22,28 -57,52 -107,74 -49,21 -104,32 -166,32 -94,0 -169,-27 -226,-81 -56,-54 -85,-127 -85,-219 0,-92 29,-165 85,-219 57,-53 134,-80 231,-80 44,0 87,4 128,13 41,8 74,19 99,31l2 142 -8 0c-14,-53 -38,-92 -73,-116 -34,-24 -75,-36 -123,-36 -67,0 -118,24 -153,72 -36,47 -54,112 -54,195 0,82 17,147 49,193 33,47 79,70 139,70 43,0 79,-12 108,-37 15,-12 25,-27 32,-44l0 -126c0,-12 -4,-21 -11,-28 -8,-6 -18,-9 -32,-9l-13 0 0 -8 231 0 0 8z"/>
   <path class="fil1" d="M4184 2707c14,0 26,-5 36,-15 11,-10 16,-22 16,-37l0 -456c0,-14 -5,-26 -16,-36 -10,-10 -22,-15 -36,-15l-11 0 0 -9 250 0 -1 9 -10 0c-14,0 -26,5 -37,15 -10,10 -15,22 -15,36l0 481 108 0c40,0 73,-12 100,-35 28,-23 48,-55 61,-98l8 0 -38 168 -426 0 0 -8 11 0z"/>
   <path class="fil1" d="M14005 1802c23,0 42,-8 58,-24 16,-16 24,-36 25,-58l0 -721c-3,-30 -17,-52 -43,-67 -13,-7 -26,-10 -40,-10l-17 0 0 -13 496 0c27,0 56,-3 88,-8 32,-5 54,-10 67,-16l0 227 -13 0 0 -16c0,-38 -11,-70 -34,-93 -23,-24 -54,-37 -92,-39l-218 0 0 377 171 0c32,-1 58,-12 79,-33 21,-21 31,-47 31,-78l0 -12 13 0 0 299 -13 0 0 -11c0,-43 -17,-75 -52,-95 -17,-10 -36,-15 -57,-16l-172 0 0 364 170 0c63,0 115,-18 158,-55 43,-36 75,-87 95,-154l13 0 -59 264 -671 0 0 -12 17 0z"/>
   <path class="fil1" d="M13893 922c-22,0 -40,7 -56,22 -15,15 -24,34 -25,55l0 668c0,58 4,106 12,146l4 20 -12 0 -653 -623 0 514c0,21 8,40 23,55 16,15 34,23 56,23l24 0 0 12 -392 0 0 -12 24 0c22,0 41,-8 57,-23 15,-15 23,-34 23,-56l0 -672c0,-57 -4,-104 -12,-142l-2 -20 11 0 654 623 0 -511c-1,-23 -9,-42 -25,-57 -15,-15 -34,-22 -55,-22l-24 0 0 -13 392 0 0 13 -24 0z"/>
   <path class="fil1" d="M12878 922l-18 0c-26,0 -50,7 -74,22 -23,14 -41,32 -55,53l-255 406 0 317c0,22 8,42 24,58 17,16 36,24 59,24l15 0 2 12 -394 0 0 -12 17 0c22,0 42,-8 58,-24 16,-15 24,-34 25,-57l0 -319 -247 -407c-13,-20 -32,-38 -55,-52 -24,-14 -48,-21 -73,-21l-19 0 0 -13 429 0 0 13 -17 0c-19,0 -34,8 -44,26 -5,9 -8,18 -8,27 0,9 2,18 7,27l185 336 191 -336c5,-9 8,-18 8,-27 0,-9 -3,-18 -9,-26 -10,-18 -25,-27 -44,-27l-16 0 0 -13 308 0 0 13z"/>
   <path class="fil1" d="M11099 922c-22,0 -41,8 -57,24 -16,16 -25,35 -26,57l0 773c0,61 -16,116 -49,164 -33,48 -73,83 -120,103 -48,21 -95,32 -142,32 -12,0 -23,-1 -34,-2l0 -11c52,-22 90,-59 114,-112 25,-53 37,-113 37,-178l0 -769c-1,-32 -14,-55 -41,-71 -13,-7 -27,-10 -41,-10l-17 0 0 -13 393 0 0 13 -17 0z"/>
   <path class="fil1" d="M9596 1802c22,0 41,-8 57,-24 16,-16 25,-36 26,-58l0 -721c-3,-30 -17,-52 -43,-67 -13,-7 -26,-10 -40,-10l-17 0 0 -13 495 0c27,0 57,-3 88,-8 32,-5 55,-10 68,-16l0 227 -13 0 0 -16c0,-38 -12,-70 -35,-93 -22,-24 -53,-37 -92,-39l-217 0 0 377 170 0c32,-1 59,-12 79,-33 21,-21 31,-47 31,-78l0 -12 13 0 0 299 -13 0 0 -11c0,-43 -17,-75 -51,-95 -18,-10 -37,-15 -57,-16l-172 0 0 364 169 0c63,0 116,-18 159,-55 42,-36 74,-87 95,-154l13 0 -60 264 -670 0 0 -12 17 0z"/>
   <path class="fil1" d="M8806 1802c23,0 42,-8 58,-24 16,-16 24,-36 25,-58l0 -717c-1,-22 -9,-41 -25,-57 -16,-16 -35,-24 -58,-24l-16 0 0 -13 393 0 -1 13 -16 0c-22,0 -42,8 -58,24 -16,16 -25,35 -25,57l0 756 170 0c63,0 116,-18 158,-55 43,-36 75,-87 95,-154l13 0 -59 264 -670 0 0 -12 16 0z"/>
   <path class="fil1" d="M7995 1802c23,0 42,-8 58,-24 16,-16 24,-36 25,-58l0 -721c-3,-30 -17,-52 -43,-67 -13,-7 -26,-10 -40,-10l-17 0 0 -13 496 0c27,0 56,-3 88,-8 32,-5 54,-10 67,-16l0 227 -13 0 0 -16c0,-38 -11,-70 -34,-93 -23,-24 -54,-37 -93,-39l-217 0 0 377 171 0c32,-1 58,-12 79,-33 20,-21 31,-47 31,-78l0 -12 13 0 0 299 -13 0 0 -11c0,-43 -17,-75 -52,-95 -17,-10 -36,-15 -57,-16l-172 0 0 364 170 0c63,0 115,-18 158,-55 43,-36 74,-87 95,-154l13 0 -59 264 -671 0 0 -12 17 0z"/>
   <path class="fil1" d="M5859 922l-18 0c-26,0 -51,7 -74,22 -23,14 -42,32 -56,53l-254 406 0 317c0,22 8,42 24,58 17,16 36,24 58,24l16 0 1 12 -393 0 0 -12 17 0c22,0 41,-8 57,-24 16,-15 25,-34 26,-57l0 -319 -248 -407c-13,-20 -31,-38 -55,-52 -23,-14 -48,-21 -73,-21l-18 0 0 -13 428 0 0 13 -16 0c-19,0 -34,8 -44,26 -6,9 -8,18 -8,27 0,9 2,18 6,27l185 336 192 -336c5,-9 8,-18 8,-27 0,-9 -3,-18 -9,-26 -11,-18 -25,-27 -44,-27l-16 0 0 -13 308 0 0 13z"/>
  </g>
 </g>
</svg>
